<svg width="8" height="8" viewBox="0 0 8 8" fill="none" xmlns="http://www.w3.org/2000/svg">
<path d="M6.15608 7.49999C6.10346 7.5002 6.05212 7.4838 6.00936 7.45312L3.99983 5.99624L1.9903 7.45312C1.94737 7.48426 1.89564 7.50094 1.84261 7.50074C1.78957 7.50055 1.73797 7.4835 1.69527 7.45205C1.65256 7.4206 1.62097 7.37638 1.60505 7.32579C1.58913 7.2752 1.58971 7.22086 1.60671 7.17062L2.39046 4.84921L0.359206 3.45624C0.315208 3.42611 0.282001 3.38269 0.264436 3.33233C0.246872 3.28198 0.245871 3.22732 0.261579 3.17636C0.277287 3.12539 0.308882 3.08079 0.351747 3.04906C0.394612 3.01733 0.446501 3.00013 0.499831 2.99999H3.00577L3.76202 0.672651C3.77831 0.622404 3.8101 0.578609 3.85282 0.547548C3.89555 0.516487 3.94701 0.499756 3.99983 0.499756C4.05265 0.499756 4.10412 0.516487 4.14684 0.547548C4.18957 0.578609 4.22135 0.622404 4.23764 0.672651L4.99389 3.00078H7.49983C7.55323 3.00075 7.60523 3.01782 7.64822 3.04949C7.69122 3.08116 7.72294 3.12576 7.73875 3.17677C7.75456 3.22777 7.75362 3.2825 7.73607 3.33293C7.71852 3.38336 7.68529 3.42685 7.64124 3.45703L5.60921 4.84921L6.39249 7.16999C6.40518 7.20757 6.40875 7.24762 6.4029 7.28685C6.39706 7.32607 6.38196 7.36335 6.35886 7.39559C6.33577 7.42783 6.30533 7.45411 6.27007 7.47226C6.23481 7.49042 6.19574 7.49992 6.15608 7.49999Z" fill="white"/>
</svg>
